<?xml version="1.0" encoding="UTF-8" standalone="no"?>
<!-- Created with Inkscape (http://www.inkscape.org/) -->

<svg
   xmlns:dc="http://purl.org/dc/elements/1.1/"
   xmlns:cc="http://creativecommons.org/ns#"
   xmlns:rdf="http://www.w3.org/1999/02/22-rdf-syntax-ns#"
   xmlns:svg="http://www.w3.org/2000/svg"
   xmlns="http://www.w3.org/2000/svg"
   xmlns:sodipodi="http://sodipodi.sourceforge.net/DTD/sodipodi-0.dtd"
   xmlns:inkscape="http://www.inkscape.org/namespaces/inkscape"
   width="24"
   height="24"
   id="svg3920"
   version="1.1"
   inkscape:version="0.48.4 r9939"
   sodipodi:docname="indicator-notification-close-deselect.svg">
  <defs
     id="defs3922" />
  <sodipodi:namedview
     id="base"
     pagecolor="#ffffff"
     bordercolor="#666666"
     borderopacity="1.0"
     inkscape:pageopacity="0.0"
     inkscape:pageshadow="2"
     inkscape:zoom="11.2"
     inkscape:cx="4.1773985"
     inkscape:cy="15.060459"
     inkscape:document-units="px"
     inkscape:current-layer="layer1"
     showgrid="false"
     inkscape:window-width="959"
     inkscape:window-height="576"
     inkscape:window-x="65"
     inkscape:window-y="24"
     inkscape:window-maximized="1" />
  <metadata
     id="metadata3925">
    <rdf:RDF>
      <cc:Work
         rdf:about="">
        <dc:format>image/svg+xml</dc:format>
        <dc:type
           rdf:resource="http://purl.org/dc/dcmitype/StillImage" />
        <dc:title></dc:title>
      </cc:Work>
    </rdf:RDF>
  </metadata>
  <g
     inkscape:label="Layer 1"
     inkscape:groupmode="layer"
     id="layer1"
     transform="translate(0,-1028.3622)">
    <path
       style="fill:#e6ddd5;fill-opacity:1;stroke:#333333;stroke-width:1;stroke-opacity:1"
       d="M 6.34375 2.84375 C 5.8871312 2.84375 5.4436349 3.0251151 5.09375 3.375 L 3.375 5.09375 C 2.6752302 5.7935198 2.6752302 6.8939802 3.375 7.59375 L 7.78125 12 L 3.375 16.40625 C 2.6752302 17.10602 2.6752302 18.20648 3.375 18.90625 L 5.09375 20.625 C 5.7935198 21.32477 6.8939802 21.32477 7.59375 20.625 L 12 16.21875 L 16.40625 20.625 C 17.10602 21.32477 18.20648 21.32477 18.90625 20.625 L 20.625 18.90625 C 21.32477 18.20648 21.32477 17.10602 20.625 16.40625 L 16.21875 12 L 20.625 7.59375 C 21.32477 6.8939802 21.32477 5.7935198 20.625 5.09375 L 18.90625 3.375 C 18.20648 2.6752302 17.10602 2.6752302 16.40625 3.375 L 12 7.78125 L 7.59375 3.375 C 7.2438651 3.0251151 6.8003688 2.84375 6.34375 2.84375 z "
       transform="translate(0,1028.3622)"
       id="rect3928" />
  </g>
</svg>
