<?xml version="1.0" encoding="UTF-8" standalone="no"?>
<!-- Created with Inkscape (http://www.inkscape.org/) -->

<svg
   xmlns:dc="http://purl.org/dc/elements/1.1/"
   xmlns:cc="http://creativecommons.org/ns#"
   xmlns:rdf="http://www.w3.org/1999/02/22-rdf-syntax-ns#"
   xmlns:svg="http://www.w3.org/2000/svg"
   xmlns="http://www.w3.org/2000/svg"
   xmlns:xlink="http://www.w3.org/1999/xlink"
   xmlns:sodipodi="http://sodipodi.sourceforge.net/DTD/sodipodi-0.dtd"
   xmlns:inkscape="http://www.inkscape.org/namespaces/inkscape"
   width="24"
   height="24"
   id="svg2"
   version="1.1"
   inkscape:version="0.47 r22583"
   sodipodi:docname="humanity-notification-read.svg">
  <defs
     id="defs4">
    <linearGradient
       inkscape:collect="always"
       id="linearGradient4299">
      <stop
         style="stop-color:#f4a41b;stop-opacity:1;"
         offset="0"
         id="stop4301" />
      <stop
         style="stop-color:#f4a41b;stop-opacity:0;"
         offset="1"
         id="stop4303" />
    </linearGradient>
    <linearGradient
       id="linearGradient3903">
      <stop
         style="stop-color:#93d4fd;stop-opacity:0.38793105;"
         offset="0"
         id="stop3905" />
      <stop
         style="stop-color:#93d4fd;stop-opacity:0;"
         offset="1"
         id="stop3907" />
    </linearGradient>
    <inkscape:perspective
       sodipodi:type="inkscape:persp3d"
       inkscape:vp_x="0 : 526.18109 : 1"
       inkscape:vp_y="0 : 1000 : 0"
       inkscape:vp_z="744.09448 : 526.18109 : 1"
       inkscape:persp3d-origin="372.04724 : 350.78739 : 1"
       id="perspective10" />
    <inkscape:perspective
       id="perspective10-0"
       inkscape:persp3d-origin="372.04724 : 350.78739 : 1"
       inkscape:vp_z="744.09448 : 526.18109 : 1"
       inkscape:vp_y="0 : 1000 : 0"
       inkscape:vp_x="0 : 526.18109 : 1"
       sodipodi:type="inkscape:persp3d" />
    <radialGradient
       inkscape:collect="always"
       xlink:href="#linearGradient4299"
       id="radialGradient4305"
       cx="23.334524"
       cy="50.32896"
       fx="23.334524"
       fy="50.32896"
       r="22.375"
       gradientTransform="matrix(0.55780357,-0.59636345,0.65404398,0.61175304,-22.59891,26.884319)"
       gradientUnits="userSpaceOnUse" />
  </defs>
  <sodipodi:namedview
     id="base"
     pagecolor="#ffffff"
     bordercolor="#666666"
     borderopacity="1.0"
     inkscape:pageopacity="0.0"
     inkscape:pageshadow="2"
     inkscape:zoom="16"
     inkscape:cx="-0.273897"
     inkscape:cy="10.588235"
     inkscape:document-units="px"
     inkscape:current-layer="layer1"
     showgrid="false"
     inkscape:window-width="1280"
     inkscape:window-height="950"
     inkscape:window-x="0"
     inkscape:window-y="25"
     inkscape:window-maximized="1">
    <inkscape:grid
       type="xygrid"
       id="grid2837"
       empspacing="5"
       visible="true"
       enabled="true"
       snapvisiblegridlinesonly="true" />
  </sodipodi:namedview>
  <metadata
     id="metadata7">
    <rdf:RDF>
      <cc:Work
         rdf:about="">
        <dc:format>image/svg+xml</dc:format>
        <dc:type
           rdf:resource="http://purl.org/dc/dcmitype/StillImage" />
        <dc:title></dc:title>
      </cc:Work>
    </rdf:RDF>
  </metadata>
  <g
     inkscape:label="Layer 1"
     inkscape:groupmode="layer"
     id="layer1"
     transform="translate(0,-1028.3622)">
    <path
       sodipodi:nodetypes="cccccc"
       id="path3608"
       d="m 2.380545,1047.5939 9.201001,0.094 10.070171,-2.2285 c 0,0 0.560326,-12.1305 -4.581102,-12.4227 l -10.4828829,2.2699 c -4.3909986,1.0892 -4.371099,11.643 -4.2071871,12.2878 z"
       style="fill:#e6ddd5;stroke:#e6ddd5;stroke-width:3;stroke-linecap:round;stroke-linejoin:round;stroke-miterlimit:4;stroke-opacity:1;stroke-dasharray:none;fill-opacity:1" />
    <path
       style="fill:none;stroke:#333333;stroke-width:1.32067811;stroke-linecap:round;stroke-linejoin:round;stroke-miterlimit:4;stroke-opacity:1;stroke-dasharray:none"
       d="m 2.380545,1047.5939 9.201001,0.094 10.070171,-2.2285 c 0,0 0.560326,-12.1305 -4.581102,-12.4227 l -10.4828829,2.2699 c -4.3909986,1.0892 -4.371099,11.643 -4.2071871,12.2878 z"
       id="path4169-3"
       sodipodi:nodetypes="cccccc" />
    <path
       style="fill:#333333;fill-opacity:1;stroke:none"
       d="m 6.9815782,1035.5579 c -5.3451258,0 -4.9584325,12.5337 -4.7874588,12.4226 l 9.5749166,0 c 0,0 0.557668,-12.4226 -4.7874578,-12.4226 z m 2.971526,4.0858 c 0.065192,0.2056 0.1034478,0.4427 0.1650848,0.6604 l -4.9525439,1.4857 0.9492375,5.1177 -1.7746613,-0.041 -0.9905086,-6.0668 6.6033915,-1.1556 z m 0.4127118,1.527 c 0.438135,1.8371 0.672606,3.9586 0.412712,5.778 l -3.7969498,-0.041 -0.9079668,-4.4572 4.2922046,-1.2795 z"
       id="path4142" />
    <path
       style="fill:#333333;fill-opacity:1;stroke:none"
       d="m 13.55077,1041.6678 c 0,0.1057 0.124223,0.1621 0.278532,0.1268 l 1.048459,-0.242 c 0.154308,-0.035 0.278533,-0.1495 0.278533,-0.2553 l 0,-4.2305 0.994109,-0.2295 c 0.154308,-0.036 0.278533,-0.1495 0.278533,-0.2553 l 0,-1.3041 c 0,-0.1055 -0.124224,-0.1621 -0.278533,-0.1267 l -2.321101,0.5358 c -0.154307,0.035 -0.278532,0.1495 -0.278532,0.2551 l 0,5.7256 z"
       id="path4161"
       sodipodi:nodetypes="cccccccccccc" />
  </g>
</svg>
