<?xml version="1.0" encoding="UTF-8" standalone="no"?>
<!-- Created with Inkscape (http://www.inkscape.org/) -->

<svg
   xmlns:dc="http://purl.org/dc/elements/1.1/"
   xmlns:cc="http://creativecommons.org/ns#"
   xmlns:rdf="http://www.w3.org/1999/02/22-rdf-syntax-ns#"
   xmlns:svg="http://www.w3.org/2000/svg"
   xmlns="http://www.w3.org/2000/svg"
   xmlns:xlink="http://www.w3.org/1999/xlink"
   xmlns:sodipodi="http://sodipodi.sourceforge.net/DTD/sodipodi-0.dtd"
   xmlns:inkscape="http://www.inkscape.org/namespaces/inkscape"
   width="24"
   height="24"
   id="svg2"
   version="1.1"
   inkscape:version="0.47 r22583"
   sodipodi:docname="humanity-notification-unread.svg">
  <defs
     id="defs4">
    <linearGradient
       id="linearGradient3731">
      <stop
         style="stop-color:#ffffff;stop-opacity:1;"
         offset="0"
         id="stop3733" />
      <stop
         style="stop-color:#ffffff;stop-opacity:0;"
         offset="1"
         id="stop3735" />
    </linearGradient>
    <linearGradient
       id="linearGradient3715">
      <stop
         style="stop-color:#ffffff;stop-opacity:1;"
         offset="0"
         id="stop3717" />
      <stop
         style="stop-color:#ffffff;stop-opacity:0;"
         offset="1"
         id="stop3719" />
    </linearGradient>
    <linearGradient
       id="linearGradient3705">
      <stop
         style="stop-color:#ddeb7b;stop-opacity:1;"
         offset="0"
         id="stop3707" />
      <stop
         id="stop3713"
         offset="0.32225218"
         style="stop-color:#b1c948;stop-opacity:1;" />
      <stop
         style="stop-color:#769123;stop-opacity:1;"
         offset="1"
         id="stop3709" />
    </linearGradient>
    <linearGradient
       inkscape:collect="always"
       id="linearGradient4299">
      <stop
         style="stop-color:#f4a41b;stop-opacity:1;"
         offset="0"
         id="stop4301" />
      <stop
         style="stop-color:#f4a41b;stop-opacity:0;"
         offset="1"
         id="stop4303" />
    </linearGradient>
    <linearGradient
       id="linearGradient3903">
      <stop
         style="stop-color:#93d4fd;stop-opacity:0.38793105;"
         offset="0"
         id="stop3905" />
      <stop
         style="stop-color:#93d4fd;stop-opacity:0;"
         offset="1"
         id="stop3907" />
    </linearGradient>
    <inkscape:perspective
       sodipodi:type="inkscape:persp3d"
       inkscape:vp_x="0 : 526.18109 : 1"
       inkscape:vp_y="0 : 1000 : 0"
       inkscape:vp_z="744.09448 : 526.18109 : 1"
       inkscape:persp3d-origin="372.04724 : 350.78739 : 1"
       id="perspective10" />
    <inkscape:perspective
       id="perspective10-0"
       inkscape:persp3d-origin="372.04724 : 350.78739 : 1"
       inkscape:vp_z="744.09448 : 526.18109 : 1"
       inkscape:vp_y="0 : 1000 : 0"
       inkscape:vp_x="0 : 526.18109 : 1"
       sodipodi:type="inkscape:persp3d" />
    <radialGradient
       inkscape:collect="always"
       xlink:href="#linearGradient4299"
       id="radialGradient4305"
       cx="23.334524"
       cy="50.32896"
       fx="23.334524"
       fy="50.32896"
       r="22.375"
       gradientTransform="matrix(0.55780357,-0.59636345,0.65404398,0.61175304,-22.59891,26.884319)"
       gradientUnits="userSpaceOnUse" />
    <radialGradient
       inkscape:collect="always"
       xlink:href="#linearGradient3705"
       id="radialGradient3711"
       cx="10.492408"
       cy="1036.2013"
       fx="10.492408"
       fy="1036.2013"
       r="9.2527103"
       gradientTransform="matrix(1.1630415,-0.02510768,0.02514309,1.1646812,-27.763993,-169.37081)"
       gradientUnits="userSpaceOnUse" />
    <linearGradient
       inkscape:collect="always"
       xlink:href="#linearGradient3731"
       id="linearGradient3737"
       x1="4.3654122"
       y1="5.2578845"
       x2="6.7156391"
       y2="21.019079"
       gradientUnits="userSpaceOnUse" />
    <linearGradient
       inkscape:collect="always"
       xlink:href="#linearGradient3731"
       id="linearGradient3747"
       x1="8.4783049"
       y1="7.2451649"
       x2="11.152132"
       y2="20.868074"
       gradientUnits="userSpaceOnUse" />
    <linearGradient
       inkscape:collect="always"
       xlink:href="#linearGradient3731"
       id="linearGradient3765"
       x1="7.7901888"
       y1="2.3797531"
       x2="17.786634"
       y2="18.880793"
       gradientUnits="userSpaceOnUse" />
  </defs>
  <sodipodi:namedview
     id="base"
     pagecolor="#ffffff"
     bordercolor="#666666"
     borderopacity="1.0"
     inkscape:pageopacity="0.0"
     inkscape:pageshadow="2"
     inkscape:zoom="1"
     inkscape:cx="9.7295552"
     inkscape:cy="11.105452"
     inkscape:document-units="px"
     inkscape:current-layer="layer1"
     showgrid="false"
     inkscape:window-width="1280"
     inkscape:window-height="950"
     inkscape:window-x="0"
     inkscape:window-y="25"
     inkscape:window-maximized="1">
    <inkscape:grid
       type="xygrid"
       id="grid2837"
       empspacing="5"
       visible="true"
       enabled="true"
       snapvisiblegridlinesonly="true" />
  </sodipodi:namedview>
  <metadata
     id="metadata7">
    <rdf:RDF>
      <cc:Work
         rdf:about="">
        <dc:format>image/svg+xml</dc:format>
        <dc:type
           rdf:resource="http://purl.org/dc/dcmitype/StillImage" />
        <dc:title></dc:title>
      </cc:Work>
    </rdf:RDF>
  </metadata>
  <g
     inkscape:label="Layer 1"
     inkscape:groupmode="layer"
     id="layer1"
     transform="translate(0,-1028.3622)">
    <path
       sodipodi:nodetypes="cccccc"
       id="path3703"
       d="m 2.7953316,1047.282 8.8042584,0.09 9.635949,-2.1324 c 0,0 0.536165,-11.6075 -4.383567,-11.8871 l -10.0308654,2.172 c -4.2016607,1.0423 -4.1826191,11.141 -4.025775,11.758 z"
       style="fill:url(#radialGradient3711);stroke:none;stroke-width:1.26373099999999994;stroke-linecap:round;stroke-linejoin:round;stroke-miterlimit:4;stroke-opacity:1;stroke-dasharray:none;fill-opacity:1" />
    <path
       style="fill:none;stroke:#699536;stroke-width:1.32067811000000002;stroke-linecap:round;stroke-linejoin:round;stroke-miterlimit:4;stroke-opacity:1;stroke-dasharray:none"
       d="m 2.380545,1047.5939 9.201001,0.094 10.070171,-2.2285 c 0,0 0.560326,-12.1305 -4.581102,-12.4227 l -10.4828829,2.2699 c -4.3909986,1.0892 -4.371099,11.643 -4.2071871,12.2878 z"
       id="path4169-3"
       sodipodi:nodetypes="cccccc" />
    <path
       style="fill:#699536;fill-opacity:1;stroke:none"
       d="m 6.9815782,1035.5579 c -5.3451258,0 -4.9584325,12.5337 -4.7874588,12.4226 l 9.5749166,0 c 0,0 0.557668,-12.4226 -4.7874578,-12.4226 z m 2.971526,4.0858 c 0.065192,0.2056 0.1034478,0.4427 0.1650848,0.6604 l -4.9525439,1.4857 0.9492375,5.1177 -1.7746613,-0.041 -0.9905086,-6.0668 6.6033915,-1.1556 z m 0.4127118,1.527 c 0.438135,1.8371 0.672606,3.9586 0.412712,5.778 l -3.7969498,-0.041 -0.9079668,-4.4572 4.2922046,-1.2795 z"
       id="path4142" />
    <path
       style="fill:#699536;fill-opacity:1;stroke:none"
       d="m 13.55077,1041.6678 c 0,0.1057 0.124223,0.1621 0.278532,0.1268 l 1.048459,-0.242 c 0.154308,-0.035 0.278533,-0.1495 0.278533,-0.2553 l 0,-4.2305 0.994109,-0.2295 c 0.154308,-0.036 0.278533,-0.1495 0.278533,-0.2553 l 0,-1.3041 c 0,-0.1055 -0.124224,-0.1621 -0.278533,-0.1267 l -2.321101,0.5358 c -0.154307,0.035 -0.278532,0.1495 -0.278532,0.2551 l 0,5.7256 z"
       id="path4161"
       sodipodi:nodetypes="cccccccccccc" />
    <path
       style="fill:none;stroke:url(#linearGradient3737);stroke-width:1px;stroke-linecap:round;stroke-linejoin:round;stroke-opacity:1"
       d="m 4.5913044,18.175211 1.2334848,0 -0.8908501,-4.865412 5.0709929,-1.507593 -0.1370539,-0.411161 -6.4415315,1.164957 1.1649578,5.619209 z"
       id="path3729"
       transform="translate(0,1028.3622)" />
    <path
       style="fill:none;stroke:url(#linearGradient3747);stroke-width:1px;stroke-linecap:round;stroke-linejoin:round;stroke-opacity:1"
       d="M 7.1268009,18.243738 6.3044777,14.132122 10.141986,13.035691 c 0,0 0.411161,0.685269 0.479688,2.67255 0.06853,1.987281 0,2.604024 0,2.604024 l -3.4948731,-0.06853 z"
       id="path3739"
       transform="translate(0,1028.3622)" />
    <path
       style="fill:none;stroke:url(#linearGradient3765);stroke-width:1px;stroke-linecap:round;stroke-linejoin:round;stroke-opacity:1"
       d="m 8.2917587,7.3479557 8.7029203,-2.055808 c 0,0 1.774725,0.4583809 3.083712,4.111616 1.420216,3.9636653 1.164958,6.8526933 1.164958,6.8526933 l -9.182609,2.124335 c 0,0 0.137054,-2.329916 -0.753796,-6.578586 C 10.416094,7.5535365 8.2232318,7.2794287 8.2917587,7.3479557 z"
       id="path3757"
       transform="translate(0,1028.3622)"
       sodipodi:nodetypes="ccsccsc" />
  </g>
</svg>
